<svg id="visual" viewBox="0 0 1400 500" width="1400" height="500" xmlns="http://www.w3.org/2000/svg" xmlns:xlink="http://www.w3.org/1999/xlink" version="1.1"><path d="M0 372L29.2 379.3C58.3 386.7 116.7 401.3 175 404.8C233.3 408.3 291.7 400.7 350 392.2C408.3 383.7 466.7 374.3 525 380.3C583.3 386.3 641.7 407.7 700 418.7C758.3 429.7 816.7 430.3 875 422C933.3 413.7 991.7 396.3 1050 390.2C1108.3 384 1166.7 389 1225 389C1283.3 389 1341.7 384 1370.8 381.5L1400 379L1400 501L1370.8 501C1341.7 501 1283.3 501 1225 501C1166.7 501 1108.3 501 1050 501C991.7 501 933.3 501 875 501C816.7 501 758.3 501 700 501C641.7 501 583.3 501 525 501C466.7 501 408.3 501 350 501C291.7 501 233.3 501 175 501C116.7 501 58.3 501 29.2 501L0 501Z" fill="#0f75ac"></path><path d="M0 449L29.2 443C58.3 437 116.7 425 175 419.3C233.3 413.7 291.7 414.3 350 415.7C408.3 417 466.7 419 525 426C583.3 433 641.7 445 700 449.8C758.3 454.7 816.7 452.3 875 452.3C933.3 452.3 991.7 454.7 1050 451C1108.3 447.3 1166.7 437.7 1225 436.3C1283.3 435 1341.7 442 1370.8 445.5L1400 449L1400 501L1370.8 501C1341.7 501 1283.3 501 1225 501C1166.7 501 1108.3 501 1050 501C991.7 501 933.3 501 875 501C816.7 501 758.3 501 700 501C641.7 501 583.3 501 525 501C466.7 501 408.3 501 350 501C291.7 501 233.3 501 175 501C116.7 501 58.3 501 29.2 501L0 501Z" fill="#39c1fc"></path></svg>