<svg xmlns="http://www.w3.org/2000/svg" width="248" height="13" viewBox="0 0 248 13" fill="none">
<path d="M1.7915 6.52727C5.21607 0.490909 9.49677 0.490909 14.6336 6.52727C19.1516 11.1091 23.4323 11.1091 27.4757 6.52727C30.9003 1.94545 35.181 1.94545 40.3178 6.52727C45.2712 10.7818 49.5519 10.7818 53.1599 6.52727C56.5845 2.27273 60.8652 2.27273 66.002 6.52727C71.9731 12.1636 76.2538 12.1636 78.8441 6.52727C82.2687 0.890909 86.5494 0.890909 91.6862 6.52727C96.3923 11.2182 100.673 11.2182 104.528 6.52727C107.953 1.83636 112.234 1.83636 117.37 6.52727C122.467 11.1455 126.748 11.1455 130.213 6.52727C133.637 1.90909 137.918 1.90909 143.055 6.52727C148.374 11.4727 152.654 11.4727 155.897 6.52727C159.321 1.58182 163.602 1.58182 168.739 6.52727C174.405 12.4909 178.685 12.4909 181.581 6.52727C185.006 0.563636 189.286 0.563636 194.423 6.52727C199.027 11.2545 203.308 11.2545 207.265 6.52727C210.69 1.8 214.97 1.8 220.107 6.52727C225.165 11.1091 229.446 11.1091 232.949 6.52727C236.374 1.94545 240.655 1.94545 245.792 6.52727" stroke="#ff7300" stroke-width="3.49843" stroke-linecap="round"/>
</svg>