<svg id="visual" viewBox="0 0 1400 500" width="1400" height="500" xmlns="http://www.w3.org/2000/svg" xmlns:xlink="http://www.w3.org/1999/xlink" version="1.1"><path d="M0 467L33.3 465C66.7 463 133.3 459 200 445.5C266.7 432 333.3 409 400 400.5C466.7 392 533.3 398 600 410.5C666.7 423 733.3 442 800 448.8C866.7 455.7 933.3 450.3 1000 440.2C1066.7 430 1133.3 415 1200 409.8C1266.7 404.7 1333.3 409.3 1366.7 411.7L1400 414L1400 501L1366.7 501C1333.3 501 1266.7 501 1200 501C1133.3 501 1066.7 501 1000 501C933.3 501 866.7 501 800 501C733.3 501 666.7 501 600 501C533.3 501 466.7 501 400 501C333.3 501 266.7 501 200 501C133.3 501 66.7 501 33.3 501L0 501Z" fill="#39c1fc" stroke-linecap="round" stroke-linejoin="miter"></path></svg>